<svg width="22" height="27" viewBox="0 0 22 27" fill="none" xmlns="http://www.w3.org/2000/svg">
<path d="M11.1847 0C5.5733 0 0.0281982 3.65345 0.0281982 9.56938C0.0281982 13.3308 2.1923 15.4691 3.50536 15.4691C4.04693 15.4691 4.36083 13.9939 4.36083 13.5771C4.36083 13.0803 3.06325 12.0219 3.06325 9.95384C3.06325 5.65782 6.40999 2.61346 10.7415 2.61346C14.4663 2.61346 17.2228 4.68048 17.2228 8.47972C17.2228 11.3167 16.0567 16.6376 12.2823 16.6376C10.9217 16.6376 9.75783 15.6765 9.75783 14.2985C9.75783 12.279 11.0808 10.3232 11.0808 8.23889C11.0808 4.70099 6.06625 5.34248 6.06625 9.61798C6.06625 10.5154 6.1812 11.509 6.59125 12.3265C5.83636 15.5015 4.44925 20.5589 4.44925 23.83C4.44925 24.8398 4.59736 25.8333 4.69572 26.8442C4.88141 27.0472 4.78857 27.0267 5.07262 26.9252C7.82915 23.2382 7.57383 22.1864 8.82057 17.3612C9.49478 18.6117 11.2334 19.2846 12.6116 19.2846C18.4198 19.2846 21.0282 13.7552 21.0282 8.76806C21.0282 3.4623 16.3364 0 11.1847 0Z" fill="#5B331C"/>
</svg>
