<svg width="37" height="27" viewBox="0 0 37 27" fill="none" xmlns="http://www.w3.org/2000/svg">
<mask id="path-1-inside-1_13_158" fill="white">
<path d="M0 3.7145C0 2.19675 0.950593 1.59763 2.12055 1.51775L7.56818 1.55769C7.89723 1.55769 8.18972 1.79734 8.29941 2.1568C9.54249 6.5503 11.0781 9.26627 12.9061 12.3417C13.0158 12.5814 13.1986 12.7012 13.3814 12.7012C13.5277 12.7012 13.6739 12.6213 13.7836 12.4216L13.8933 11.9822L13.9298 5.07248C13.9298 4.07396 13.4911 3.9142 12.4674 3.75444C12.0652 3.67456 11.8093 3.27515 11.8093 2.87574C11.8093 2.79586 11.8093 2.71598 11.8458 2.63609C12.3577 0.918639 13.9664 0.0399408 16.2332 0.0399408L18.2806 0C19.9625 0 21.498 0.798817 21.498 3.15533V12.2219C21.6443 12.3417 21.7905 12.4216 21.9733 12.4216C22.2658 12.4216 22.6314 12.2219 22.9239 11.7027C24.8251 8.78698 26.9822 5.31213 27.2747 3.47485C27.2747 3.39497 27.3113 3.35503 27.3478 3.27515C27.75 2.39645 28.7737 1.79734 29.2125 1.63757C29.2856 1.59763 29.3953 1.55769 29.5415 1.55769H35.2085L35.5741 1.59763C36.1225 1.59763 36.5247 1.99704 36.7075 2.35651C37.0366 2.91568 36.9634 3.51479 37 3.75444V4.03402C36.4516 7.66864 32.6492 11.7426 31.0405 14.3787C30.8211 14.6982 30.7115 14.9778 30.7115 15.2574C30.7115 15.497 30.8211 15.7367 31.004 15.9763L36.3419 23.3254C36.6344 23.7648 36.7806 24.284 36.7806 24.7234C36.7806 26.0414 35.6472 26.8003 34.5504 26.9201L33.9289 26.9601H28.3715C28.2619 26.9601 28.1887 27 28.0791 27C27.4575 27 26.9457 26.6405 26.58 26.2411C25.4101 24.6834 24.2767 23.0858 23.1433 21.5281C22.9239 21.2086 22.8508 21.1686 22.6314 21.0089C22.3755 22.1672 22.1561 23.3654 21.9002 24.5636L21.7905 25.2426C21.6077 25.9615 21.1324 26.7204 20.2549 26.9201L19.7431 26.9601H16.1601C9.83498 26.9601 4.16798 17.1346 0.182806 4.87278C0.0731225 4.55325 0 4.1139 0 3.7145ZM21.9733 14.0592C21.0227 14.0592 19.9625 13.4601 19.9625 12.3417V3.15533C19.9625 2.07692 19.5237 1.67751 18.3172 1.67751L16.2332 1.7574C15.0632 1.7574 14.4051 1.9571 13.8567 2.35651C14.6976 2.79586 15.4654 3.39497 15.4654 5.07248V12.1021C15.3557 13.5 14.2955 14.4186 13.2717 14.4186C12.5771 14.4186 11.9555 13.9793 11.5899 13.2604C9.94466 10.5444 8.55534 7.98817 7.34881 4.31361L7.01976 3.27515L2.15711 3.23521C1.49901 3.23521 1.57213 3.27515 1.57213 3.63462C1.57213 3.87426 1.6087 4.19379 1.64526 4.39349L2.41304 6.63018C6.39822 17.8935 11.4071 25.2825 16.1601 25.2825H19.8162C20.3281 25.2825 20.2915 24.6035 20.4012 24.2041L21.0958 20.6893C21.2421 20.3299 21.3518 20.0104 21.6077 19.7308C21.9002 19.4112 22.2292 19.2914 22.5583 19.2914C23.253 19.2914 23.9111 19.8905 24.3498 20.4497L27.4575 24.7633C27.7134 25.2027 27.9328 25.2825 28.0791 25.2825H34.1117C34.6966 25.2825 35.2085 25.0828 35.2085 24.6834C35.2085 24.5636 35.1719 24.4038 35.0988 24.284L29.7974 17.0547C29.3587 16.4556 29.1759 15.8565 29.1759 15.2574C29.1759 14.6183 29.3953 13.9793 29.7609 13.4201C31.2964 10.9038 34.587 7.30917 35.3547 4.35355L35.4644 3.83432C35.4279 3.63462 35.4279 3.47485 35.3913 3.27515H29.6512C29.2856 3.43491 28.9931 3.67456 28.7737 3.99408L28.5543 4.75296C27.7134 7.30917 25.4101 10.824 23.7648 13.2604C23.2164 13.8195 22.5949 14.0592 21.9733 14.0592Z"/>
</mask>
<path d="M0 3.7145C0 2.19675 0.950593 1.59763 2.12055 1.51775L7.56818 1.55769C7.89723 1.55769 8.18972 1.79734 8.29941 2.1568C9.54249 6.5503 11.0781 9.26627 12.9061 12.3417C13.0158 12.5814 13.1986 12.7012 13.3814 12.7012C13.5277 12.7012 13.6739 12.6213 13.7836 12.4216L13.8933 11.9822L13.9298 5.07248C13.9298 4.07396 13.4911 3.9142 12.4674 3.75444C12.0652 3.67456 11.8093 3.27515 11.8093 2.87574C11.8093 2.79586 11.8093 2.71598 11.8458 2.63609C12.3577 0.918639 13.9664 0.0399408 16.2332 0.0399408L18.2806 0C19.9625 0 21.498 0.798817 21.498 3.15533V12.2219C21.6443 12.3417 21.7905 12.4216 21.9733 12.4216C22.2658 12.4216 22.6314 12.2219 22.9239 11.7027C24.8251 8.78698 26.9822 5.31213 27.2747 3.47485C27.2747 3.39497 27.3113 3.35503 27.3478 3.27515C27.75 2.39645 28.7737 1.79734 29.2125 1.63757C29.2856 1.59763 29.3953 1.55769 29.5415 1.55769H35.2085L35.5741 1.59763C36.1225 1.59763 36.5247 1.99704 36.7075 2.35651C37.0366 2.91568 36.9634 3.51479 37 3.75444V4.03402C36.4516 7.66864 32.6492 11.7426 31.0405 14.3787C30.8211 14.6982 30.7115 14.9778 30.7115 15.2574C30.7115 15.497 30.8211 15.7367 31.004 15.9763L36.3419 23.3254C36.6344 23.7648 36.7806 24.284 36.7806 24.7234C36.7806 26.0414 35.6472 26.8003 34.5504 26.9201L33.9289 26.9601H28.3715C28.2619 26.9601 28.1887 27 28.0791 27C27.4575 27 26.9457 26.6405 26.58 26.2411C25.4101 24.6834 24.2767 23.0858 23.1433 21.5281C22.9239 21.2086 22.8508 21.1686 22.6314 21.0089C22.3755 22.1672 22.1561 23.3654 21.9002 24.5636L21.7905 25.2426C21.6077 25.9615 21.1324 26.7204 20.2549 26.9201L19.7431 26.9601H16.1601C9.83498 26.9601 4.16798 17.1346 0.182806 4.87278C0.0731225 4.55325 0 4.1139 0 3.7145ZM21.9733 14.0592C21.0227 14.0592 19.9625 13.4601 19.9625 12.3417V3.15533C19.9625 2.07692 19.5237 1.67751 18.3172 1.67751L16.2332 1.7574C15.0632 1.7574 14.4051 1.9571 13.8567 2.35651C14.6976 2.79586 15.4654 3.39497 15.4654 5.07248V12.1021C15.3557 13.5 14.2955 14.4186 13.2717 14.4186C12.5771 14.4186 11.9555 13.9793 11.5899 13.2604C9.94466 10.5444 8.55534 7.98817 7.34881 4.31361L7.01976 3.27515L2.15711 3.23521C1.49901 3.23521 1.57213 3.27515 1.57213 3.63462C1.57213 3.87426 1.6087 4.19379 1.64526 4.39349L2.41304 6.63018C6.39822 17.8935 11.4071 25.2825 16.1601 25.2825H19.8162C20.3281 25.2825 20.2915 24.6035 20.4012 24.2041L21.0958 20.6893C21.2421 20.3299 21.3518 20.0104 21.6077 19.7308C21.9002 19.4112 22.2292 19.2914 22.5583 19.2914C23.253 19.2914 23.9111 19.8905 24.3498 20.4497L27.4575 24.7633C27.7134 25.2027 27.9328 25.2825 28.0791 25.2825H34.1117C34.6966 25.2825 35.2085 25.0828 35.2085 24.6834C35.2085 24.5636 35.1719 24.4038 35.0988 24.284L29.7974 17.0547C29.3587 16.4556 29.1759 15.8565 29.1759 15.2574C29.1759 14.6183 29.3953 13.9793 29.7609 13.4201C31.2964 10.9038 34.587 7.30917 35.3547 4.35355L35.4644 3.83432C35.4279 3.63462 35.4279 3.47485 35.3913 3.27515H29.6512C29.2856 3.43491 28.9931 3.67456 28.7737 3.99408L28.5543 4.75296C27.7134 7.30917 25.4101 10.824 23.7648 13.2604C23.2164 13.8195 22.5949 14.0592 21.9733 14.0592Z" fill="#5B331C"/>
<path d="M2.12055 1.51775L9.45214 -998.455L-28.3163 -998.732L-65.9981 -996.159L2.12055 1.51775ZM7.56818 1.55769L0.236597 1001.53L3.90234 1001.56H7.56818V1.55769ZM8.29941 2.1568L970.526 -270.093L967.746 -279.92L964.765 -289.688L8.29941 2.1568ZM12.9061 12.3417L922.191 -403.832L899.892 -452.554L872.513 -498.614L12.9061 12.3417ZM13.7836 12.4216L890.284 493.823L952.634 380.3L984.006 254.638L13.7836 12.4216ZM13.8933 11.9822L984.115 254.199L1013.24 137.526L1013.88 17.2734L13.8933 11.9822ZM13.9298 5.07248L1013.92 10.3637L1013.93 7.71809V5.07248H13.9298ZM12.4674 3.75444L-182.351 984.594L-162.114 988.613L-141.728 991.795L12.4674 3.75444ZM11.8458 2.63609L921.131 418.81L950.224 355.246L970.19 288.254L11.8458 2.63609ZM16.2332 0.0399408V1000.04H25.9862L35.7373 999.85L16.2332 0.0399408ZM18.2806 0V-1000H8.52767L-1.22343 -999.81L18.2806 0ZM21.498 12.2219H-978.502V485.681L-612.27 785.745L21.498 12.2219ZM22.9239 11.7027L-814.732 -534.496L-832.438 -507.341L-848.348 -479.097L22.9239 11.7027ZM27.2747 3.47485L1014.84 160.693L1027.27 82.5756V3.47485H27.2747ZM29.2125 1.63757L371.378 941.277L442.321 915.444L508.581 879.251L29.2125 1.63757ZM35.2085 1.55769L143.806 -992.528L89.6683 -998.442H35.2085V1.55769ZM35.5741 1.59763L-73.0234 995.683L-18.8857 1001.6H35.5741V1.59763ZM36.7075 2.35651L-854.651 455.655L-840.724 483.042L-825.141 509.522L36.7075 2.35651ZM37 3.75444H1037V-72.0889L1025.56 -147.065L37 3.75444ZM37 4.03402L1025.81 153.233L1037 79.0533V4.03402H37ZM31.0405 14.3787L855.452 580.37L870.655 558.226L884.646 535.298L31.0405 14.3787ZM31.004 15.9763L840.099 -571.701L833.202 -581.197L826.084 -590.528L31.004 15.9763ZM36.3419 23.3254L868.75 -530.838L857.436 -547.833L845.437 -564.352L36.3419 23.3254ZM34.5504 26.9201L98.679 1024.86L120.956 1023.43L143.148 1021.01L34.5504 26.9201ZM33.9289 26.9601V1026.96H66.0262L98.0575 1024.9L33.9289 26.9601ZM26.58 26.2411L-773.003 626.797L-743.837 665.629L-711.045 701.452L26.58 26.2411ZM23.1433 21.5281L-801.268 587.519L-793.518 598.808L-785.461 609.88L23.1433 21.5281ZM22.6314 21.0089L611.341 -787.336L-624.077 -1687.08L-953.817 -194.742L22.6314 21.0089ZM21.9002 24.5636L-956.041 -184.315L-961.293 -159.728L-965.302 -134.908L21.9002 24.5636ZM21.7905 25.2426L990.951 271.675L1001.9 228.595L1008.99 184.714L21.7905 25.2426ZM20.2549 26.9201L98.0496 1023.89L170.911 1018.2L242.171 1001.99L20.2549 26.9201ZM19.7431 26.9601V1026.96H58.6994L97.5377 1023.93L19.7431 26.9601ZM0.182806 4.87278L951.215 -304.219L948.676 -312.031L946.009 -319.801L0.182806 4.87278ZM18.3172 1.67751V-998.323H-0.841307L-19.9858 -997.589L18.3172 1.67751ZM16.2332 1.7574V1001.76H35.3917L54.5361 1001.02L16.2332 1.7574ZM13.8567 2.35651L-574.853 -805.988L-1877.28 142.557L-449.218 888.676L13.8567 2.35651ZM15.4654 12.1021L1012.4 90.3233L1015.47 51.2727V12.1021H15.4654ZM11.5899 13.2604L902.949 -440.038L886.126 -473.118L866.898 -504.86L11.5899 13.2604ZM7.34881 4.31361L-945.939 306.377L-944.369 311.333L-942.747 316.273L7.34881 4.31361ZM7.01976 3.27515L960.308 -298.788L741.056 -990.729L15.2333 -996.691L7.01976 3.27515ZM2.15711 3.23521L10.3706 -996.731L6.26395 -996.765H2.15711V3.23521ZM1.64526 4.39349L-982.006 184.478L-968.511 258.189L-944.181 329.067L1.64526 4.39349ZM2.41304 6.63018L-943.413 331.304L-941.886 335.752L-940.317 340.186L2.41304 6.63018ZM20.4012 24.2041L984.701 289.016L994.356 253.86L1001.42 218.094L20.4012 24.2041ZM21.0958 20.6893L-905.181 -356.155L-941.329 -267.303L-959.927 -173.2L21.0958 20.6893ZM21.6077 19.7308L-716.017 -655.48L21.6077 19.7308ZM24.3498 20.4497L835.714 -564.091L823.736 -580.717L811.088 -596.838L24.3498 20.4497ZM27.4575 24.7633L891.543 -478.582L867.15 -520.457L838.822 -559.778L27.4575 24.7633ZM35.0988 24.284L888.705 -496.635L866.601 -532.855L841.509 -567.073L35.0988 24.284ZM29.7974 17.0547L-777.002 607.881L-776.807 608.146L-776.613 608.411L29.7974 17.0547ZM29.7609 13.4201L866.73 560.67L875.254 547.634L883.367 534.339L29.7609 13.4201ZM35.3547 4.35355L1003.23 255.78L1009.01 233.529L1013.76 211.035L35.3547 4.35355ZM35.4644 3.83432L1013.87 210.516L1054.61 17.6499L1019.12 -176.25L35.4644 3.83432ZM35.3913 3.27515L1019.04 -176.809L868.935 -996.725H35.3913V3.27515ZM29.6512 3.27515V-996.725H-179.297L-370.763 -913.059L29.6512 3.27515ZM28.7737 3.99408L-795.638 -561.997L-887.046 -428.854L-931.894 -273.705L28.7737 3.99408ZM28.5543 4.75296L978.475 317.245L984.165 299.947L989.222 282.452L28.5543 4.75296ZM23.7648 13.2604L737.703 713.469L801.508 648.413L852.504 572.895L23.7648 13.2604ZM1000 3.7145C1000 225.692 921.404 516.147 673.809 741.549C451.505 943.926 205.462 989.962 70.2392 999.195L-65.9981 -996.159C-202.391 -986.847 -449.494 -940.471 -672.566 -737.395C-920.929 -511.294 -1000 -219.781 -1000 3.7145H1000ZM-5.21103 1001.49L0.236597 1001.53L14.8998 -998.415L9.45214 -998.455L-5.21103 1001.49ZM7.56818 1001.56C-510.689 1001.56 -844.45 633.911 -948.166 294.002L964.765 -289.688C860.83 -630.316 526.484 -998.442 7.56818 -998.442V1001.56ZM-953.927 274.407C-917.024 404.836 -862.777 496.251 -846.701 523.298L872.513 -498.614C873.18 -497.492 892.778 -465.175 913.271 -422.134C936.239 -373.893 955.559 -322.993 970.526 -270.093L-953.927 274.407ZM-896.379 428.515C-773.903 696.109 -466.68 1012.7 13.3814 1012.7V-987.299C493.077 -987.299 799.935 -670.946 922.191 -403.832L-896.379 428.515ZM13.3814 1012.7C446.805 1012.7 750.084 749.088 890.284 493.823L-862.717 -468.98C-799.881 -583.385 -696.487 -717.602 -534.599 -823.714C-367.795 -933.048 -176.504 -987.299 13.3814 -987.299V1012.7ZM984.006 254.638L984.115 254.199L-956.329 -230.234L-956.439 -229.795L984.006 254.638ZM1013.88 17.2734L1013.92 10.3637L-986.056 -0.218688L-986.093 6.69107L1013.88 17.2734ZM1013.93 5.07248C1013.93 -126.69 983.498 -508.551 627.293 -785.432C488.048 -893.668 353.97 -938.687 288.632 -957.412C224.577 -975.77 172.014 -983.451 166.663 -984.286L-141.728 991.795C-146.568 991.04 -198.692 983.439 -262.377 965.187C-327.344 946.568 -461.121 901.682 -600.128 793.63C-955.858 517.118 -986.07 135.836 -986.07 5.07248H1013.93ZM207.286 -977.085C782.866 -862.76 1011.81 -354.546 1011.81 2.87574H-988.191C-988.191 361.096 -758.736 870.11 -182.351 984.594L207.286 -977.085ZM1011.81 2.87574C1011.81 -6.47675 1012.88 50.4655 1005.33 116.437C996.556 193.125 975.277 300.507 921.131 418.81L-897.439 -413.537C-951.622 -295.155 -972.919 -187.694 -981.703 -110.926C-985.913 -74.1349 -987.256 -44.1486 -987.781 -25.7783C-988.048 -16.4408 -988.132 -8.88564 -988.165 -4.30548C-988.182 -1.96648 -988.187 -0.0743552 -988.189 1.0729C-988.19 1.65893 -988.19 2.13323 -988.191 2.42128C-988.191 2.56842 -988.191 2.68762 -988.191 2.76025C-988.191 2.79735 -988.191 2.82746 -988.191 2.84593C-988.191 2.85536 -988.191 2.86305 -988.191 2.86782C-988.191 2.86972 -988.191 2.8725 -988.191 2.87353C-988.191 2.87455 -988.191 2.87558 -988.191 2.87574H1011.81ZM970.19 288.254C895.399 539.202 727.898 742.404 514.791 865.904C321.217 978.084 135.344 1000.04 16.2332 1000.04V-999.96C-222.089 -999.96 -769.232 -877.769 -946.498 -282.982L970.19 288.254ZM35.7373 999.85L37.7847 999.81L-1.22343 -999.81L-3.27087 -999.77L35.7373 999.85ZM18.2806 1000C-120.194 1000 -378.83 969.274 -619.028 769.445C-891.844 542.48 -978.502 235.015 -978.502 3.15533H1021.5C1021.5 -231.061 934.073 -540.104 660.068 -768.057C418.682 -968.874 158.437 -1000 18.2806 -1000V1000ZM-978.502 3.15533V12.2219H1021.5V3.15533H-978.502ZM-612.27 785.745C-530.043 853.116 -309.221 1012.42 21.9733 1012.42V-987.578C352.802 -987.578 573.331 -828.433 655.266 -761.301L-612.27 785.745ZM21.9733 1012.42C498.881 1012.42 781.807 702.016 894.196 502.503L-848.348 -479.097C-736.545 -677.572 -454.35 -987.578 21.9733 -987.578V1012.42ZM860.58 557.901C863.617 553.243 880.794 527.113 899.656 493.194C909.243 475.955 926.314 444.197 944.188 402.979C957.641 371.955 995.461 282.411 1014.84 160.693L-960.289 -153.743C-949.703 -220.241 -934.314 -273.265 -923.128 -307.374C-911.434 -343.033 -899.646 -372.122 -890.71 -392.728C-873.382 -432.686 -857.024 -463.049 -848.251 -478.825C-831.015 -509.818 -815.868 -532.754 -814.732 -534.496L860.58 557.901ZM1027.27 3.47485C1027.27 82.8179 1017.83 163.194 998.229 242.711C979.13 320.206 954.293 380.853 936.583 419.548C922.121 451.146 906.609 479.738 911.585 470.315C912.423 468.73 923.921 447.224 936.633 419.449L-881.937 -412.898C-869.243 -440.634 -857.764 -462.105 -856.943 -463.658C-851.984 -473.048 -867.512 -444.426 -881.988 -412.798C-899.712 -374.073 -924.56 -313.397 -943.667 -235.869C-963.272 -156.319 -972.725 -75.9082 -972.725 3.47485H1027.27ZM936.633 419.449C844.776 620.143 710.73 738.478 640.534 792.837C568.942 848.277 479.391 901.945 371.378 941.277L-312.953 -938.002C-421.405 -898.51 -511.687 -844.463 -584.001 -788.464C-654.92 -733.546 -789.679 -614.472 -881.937 -412.898L936.633 419.449ZM508.581 879.251C382.387 948.181 219.064 1001.56 29.5415 1001.56V-998.442C-160.274 -998.442 -323.816 -944.985 -450.156 -875.976L508.581 879.251ZM29.5415 1001.56H35.2085V-998.442H29.5415V1001.56ZM-73.389 995.643L-73.0234 995.683L144.172 -992.488L143.806 -992.528L-73.389 995.643ZM35.5741 1001.6C-218.738 1001.6 -424.944 906.528 -565.917 800.191C-699.734 699.253 -793.394 576.11 -854.651 455.655L928.066 -450.942C830.65 -642.501 550.732 -998.402 35.5741 -998.402V1001.6ZM-825.141 509.522C-921.548 345.694 -948.099 193.922 -957.057 112.365C-961.432 72.5435 -962.33 40.6011 -962.411 38.254C-962.617 32.3358 -962.228 44.8713 -961.607 56.5888C-961.053 67.0516 -959.019 105.69 -951.561 154.574L1025.56 -147.065C1033.01 -98.2406 1035.04 -59.6738 1035.59 -49.2918C1036.21 -37.6551 1036.59 -25.2101 1036.38 -31.227C1036.29 -33.7712 1035.39 -65.9433 1030.98 -106.014C1021.97 -188.07 995.292 -340.422 898.556 -504.809L-825.141 509.522ZM-963 3.75444V4.03402H1037V3.75444H-963ZM-951.807 -145.165C-931.549 -279.426 -888.144 -379.809 -861.565 -433.939C-833.676 -490.737 -806.363 -532.269 -793.65 -551.047C-781.702 -568.694 -769.182 -585.571 -774.932 -577.7C-775.703 -576.644 -781.315 -568.985 -788.062 -559.326C-794.609 -549.954 -807.574 -531.106 -822.565 -506.54L884.646 535.298C870.057 559.204 857.563 577.348 851.534 585.979C845.305 594.896 840.258 601.776 840.078 602.022C835.511 608.275 849.318 589.658 862.486 570.208C876.419 549.629 904.886 506.231 933.692 447.565C961.189 391.566 1005.27 289.311 1025.81 153.233L-951.807 -145.165ZM-793.371 -551.612C-854.806 -462.126 -969.289 -264.123 -969.289 15.2574H1030.71C1030.71 294.079 916.449 491.523 855.452 580.37L-793.371 -551.612ZM-969.289 15.2574C-969.289 324.467 -829.831 536.281 -764.076 622.481L826.084 -590.528C891.473 -504.808 1030.71 -293.473 1030.71 15.2574H-969.289ZM-778.091 603.654L-772.753 611.003L845.437 -564.352L840.099 -571.701L-778.091 603.654ZM-796.066 577.489C-903.138 416.656 -963.219 224.925 -963.219 24.7234H1036.78C1036.78 -176.357 976.407 -369.127 868.75 -530.838L-796.066 577.489ZM-963.219 24.7234C-963.219 -291.743 -816.461 -555.812 -624 -724.927C-449.679 -878.103 -249.368 -948.013 -74.0471 -967.166L143.148 1021.01C426.319 990.071 1036.78 734.604 1036.78 24.7234H-963.219ZM-29.5782 -971.022L-30.1998 -970.982L98.0575 1024.9L98.679 1024.86L-29.5782 -971.022ZM33.9289 -973.04H28.3715V1026.96H33.9289V-973.04ZM28.3715 -973.04C20.778 -973.04 13.2748 -972.953 5.86506 -972.787C-1.54453 -972.62 -8.83842 -972.374 -16.0128 -972.055C-23.187 -971.736 -30.2207 -971.347 -37.1091 -970.895C-43.9972 -970.443 -50.721 -969.93 -57.2745 -969.367C-63.8275 -968.804 -70.1939 -968.192 -76.3659 -967.542C-82.5372 -966.893 -88.5015 -966.207 -94.2485 -965.497C-105.744 -964.078 -116.334 -962.567 -125.901 -961.074C-130.681 -960.328 -135.207 -959.586 -139.457 -958.863C-143.705 -958.14 -147.688 -957.434 -151.377 -956.76C-155.066 -956.087 -158.481 -955.442 -161.588 -954.841C-164.693 -954.24 -167.521 -953.678 -170.026 -953.172C-172.528 -952.665 -174.754 -952.205 -176.642 -951.81C-177.589 -951.612 -178.463 -951.427 -179.254 -951.26C-180.044 -951.092 -180.763 -950.938 -181.396 -950.803C-182.03 -950.667 -182.592 -950.546 -183.067 -950.443C-183.541 -950.34 -183.948 -950.252 -184.263 -950.184C-184.576 -950.115 -184.829 -950.06 -184.983 -950.027C-185.062 -950.009 -185.126 -949.996 -185.165 -949.987C-185.184 -949.983 -185.201 -949.979 -185.21 -949.977C-185.214 -949.976 -185.22 -949.975 -185.222 -949.974C-185.224 -949.974 -185.226 -949.974 -185.226 -949.974C-185.232 -949.972 -185.203 -949.979 -185.169 -949.986C-185.132 -949.994 -185.069 -950.008 -184.992 -950.025C-184.841 -950.058 -184.591 -950.112 -184.281 -950.18C-183.968 -950.248 -183.564 -950.335 -183.093 -950.437C-182.621 -950.539 -182.061 -950.66 -181.431 -950.795C-180.8 -950.93 -180.084 -951.083 -179.297 -951.25C-178.508 -951.417 -177.637 -951.601 -176.693 -951.799C-174.812 -952.193 -172.591 -952.652 -170.095 -953.157C-167.596 -953.662 -164.774 -954.223 -161.674 -954.823C-158.573 -955.422 -155.164 -956.066 -151.481 -956.739C-147.797 -957.412 -143.82 -958.117 -139.578 -958.839C-135.335 -959.561 -130.815 -960.301 -126.04 -961.047C-116.485 -962.538 -105.907 -964.047 -94.4243 -965.465C-88.6835 -966.174 -82.7254 -966.859 -76.5603 -967.508C-70.3946 -968.157 -64.0345 -968.768 -57.4879 -969.331C-50.9408 -969.893 -44.2233 -970.405 -37.3417 -970.857C-30.4598 -971.308 -23.4326 -971.698 -16.265 -972.016C-9.09719 -972.334 -1.80995 -972.58 5.59293 -972.747C12.996 -972.914 20.4923 -973 28.0791 -973V1027C35.6726 1027 43.1758 1026.91 50.5855 1026.75C57.9951 1026.58 65.289 1026.33 72.4634 1026.02C79.6376 1025.7 86.6713 1025.31 93.5597 1024.85C100.448 1024.4 107.172 1023.89 113.725 1023.33C120.278 1022.76 126.645 1022.15 132.816 1021.5C138.988 1020.85 144.952 1020.17 150.699 1019.46C162.195 1018.04 172.784 1016.53 182.351 1015.03C187.132 1014.29 191.658 1013.55 195.907 1012.82C200.156 1012.1 204.138 1011.39 207.828 1010.72C211.516 1010.05 214.932 1009.4 218.039 1008.8C221.144 1008.2 223.972 1007.64 226.477 1007.13C228.979 1006.63 231.205 1006.17 233.092 1005.77C234.039 1005.57 234.913 1005.39 235.704 1005.22C236.495 1005.05 237.213 1004.9 237.847 1004.76C238.48 1004.63 239.043 1004.51 239.518 1004.4C239.992 1004.3 240.398 1004.21 240.714 1004.14C241.027 1004.08 241.28 1004.02 241.434 1003.99C241.513 1003.97 241.576 1003.96 241.615 1003.95C241.635 1003.94 241.651 1003.94 241.661 1003.94C241.665 1003.94 241.671 1003.93 241.673 1003.93C241.675 1003.93 241.677 1003.93 241.677 1003.93C241.683 1003.93 241.654 1003.94 241.62 1003.95C241.582 1003.95 241.52 1003.97 241.443 1003.98C241.292 1004.02 241.041 1004.07 240.731 1004.14C240.418 1004.21 240.015 1004.3 239.543 1004.4C239.071 1004.5 238.512 1004.62 237.881 1004.76C237.251 1004.89 236.535 1005.04 235.747 1005.21C234.959 1005.38 234.088 1005.56 233.144 1005.76C231.262 1006.15 229.042 1006.61 226.546 1007.12C224.046 1007.62 221.224 1008.18 218.125 1008.78C215.024 1009.38 211.614 1010.03 207.932 1010.7C204.248 1011.37 200.271 1012.08 196.029 1012.8C191.785 1013.52 187.265 1014.26 182.491 1015.01C172.936 1016.5 162.358 1018.01 150.875 1019.42C145.134 1020.13 139.176 1020.82 133.011 1021.47C126.845 1022.12 120.485 1022.73 113.938 1023.29C107.391 1023.85 100.674 1024.37 93.7923 1024.82C86.9104 1025.27 79.8832 1025.66 72.7156 1025.98C65.5478 1026.29 58.2605 1026.54 50.8577 1026.71C43.4546 1026.87 35.9583 1026.96 28.3715 1026.96V-973.04ZM28.0791 -973C428.749 -973 675.884 -745.454 764.205 -648.97L-711.045 701.452C-621.993 798.736 -373.834 1027 28.0791 1027V-973ZM826.163 -574.314C828.576 -571.102 830.552 -568.426 831.949 -566.522C833.327 -564.643 834.357 -563.223 834.767 -562.657C834.982 -562.361 835.119 -562.17 835.095 -562.204C835.084 -562.219 835.061 -562.251 834.99 -562.349C834.935 -562.426 834.821 -562.583 834.706 -562.743C834.293 -563.314 833.14 -564.911 831.748 -566.824L-785.461 609.88C-786.287 608.746 -786.873 607.933 -786.718 608.148C-786.691 608.185 -786.663 608.224 -786.576 608.344C-786.505 608.443 -786.385 608.609 -786.254 608.79C-785.994 609.151 -785.571 609.735 -785.071 610.426C-783.293 612.882 -778.766 619.123 -773.003 626.797L826.163 -574.314ZM847.555 -544.463C832.375 -566.573 786.994 -631.765 713.868 -701.665C677.837 -736.106 646.266 -761.084 627.167 -775.573C616.86 -783.392 597.617 -797.331 611.341 -787.336L-566.078 829.354C-552.244 839.429 -571.396 825.555 -581.621 817.798C-600.638 803.371 -632.136 778.453 -668.093 744.082C-741.073 674.322 -786.308 609.309 -801.268 587.519L847.555 -544.463ZM-953.817 -194.742C-955.198 -188.492 -956.28 -183.32 -956.987 -179.889C-957.666 -176.593 -958.201 -173.916 -958.315 -173.345C-958.349 -173.175 -958.388 -172.98 -958.388 -172.978C-958.399 -172.924 -958.384 -172.998 -958.362 -173.111C-958.318 -173.33 -958.185 -173.991 -958.007 -174.872C-957.661 -176.582 -956.967 -179.983 -956.041 -184.315L999.842 233.442C1000.9 228.511 1001.71 224.511 1002.18 222.203C1002.42 221.023 1002.61 220.063 1002.71 219.547C1002.77 219.284 1002.81 219.062 1002.83 218.966C1002.86 218.82 1002.85 218.866 1002.85 218.888C1002.83 218.955 1002.72 219.504 1002.57 220.249C1002.42 221.018 1002.18 222.2 1001.88 223.658C1001.29 226.501 1000.33 231.089 999.08 236.76L-953.817 -194.742ZM-965.302 -134.908L-965.412 -134.229L1008.99 184.714L1009.1 184.035L-965.302 -134.908ZM-947.37 -221.189C-900.208 -406.665 -716.671 -830.934 -201.661 -948.146L242.171 1001.99C758.935 884.375 943.423 458.588 990.951 271.675L-947.37 -221.189ZM-57.5397 -970.049L-58.0515 -970.009L97.5377 1023.93L98.0496 1023.89L-57.5397 -970.049ZM19.7431 -973.04H16.1601V1026.96H19.7431V-973.04ZM16.1601 -973.04C286.492 -973.04 490.434 -865.646 611.716 -774.647C727.836 -687.52 798.548 -594.392 834.9 -540.795C906.582 -435.105 939.069 -341.592 951.215 -304.219L-950.849 313.965C-934.718 363.599 -897.405 468.156 -820.312 581.824C-782.836 637.08 -518.726 1026.96 16.1601 1026.96V-973.04ZM946.009 -319.801C967.899 -256.031 980.214 -199.092 987.461 -153.852C994.917 -107.309 1000 -54.4142 1000 3.7145H-1000C-1000 105.644 -984.414 216.601 -945.643 329.546L946.009 -319.801ZM21.9733 -985.941C214.152 -985.941 430.997 -929.411 622.807 -784.729C837.168 -623.036 1019.96 -343.141 1019.96 12.3417H-980.038C-980.038 368.943 -796.713 649.697 -581.584 811.969C-389.006 957.23 -171.156 1014.06 21.9733 1014.06V-985.941ZM1019.96 12.3417V3.15533H-980.038V12.3417H1019.96ZM1019.96 3.15533C1019.96 -97.7819 1005.27 -455.993 688.877 -740.994C401.781 -999.605 78.5112 -998.323 18.3172 -998.323V1001.68C-40.6702 1001.68 -363.117 1003.16 -649.693 745.018C-965.565 460.486 -980.038 103.014 -980.038 3.15533H1019.96ZM-19.9858 -997.589L-22.0697 -997.509L54.5361 1001.02L56.6201 1000.94L-19.9858 -997.589ZM16.2332 -998.243C-109.081 -998.243 -344.055 -974.076 -574.853 -805.988L602.566 810.701C503.844 882.6 391.115 936.917 269.377 968.963C159.663 997.844 68.2513 1001.76 16.2332 1001.76V-998.243ZM-449.218 888.676C-495.251 864.625 -661.132 776.472 -797.763 585.877C-945.2 380.209 -984.535 163.769 -984.535 5.07248H1015.47C1015.47 -155.302 975.747 -372.88 827.716 -579.377C690.491 -770.8 523.806 -859.472 476.931 -883.963L-449.218 888.676ZM-984.535 5.07248V12.1021H1015.47V5.07248H-984.535ZM-981.471 -66.1192C-946.004 -518.15 -572.196 -985.581 13.2717 -985.581V1014.42C600.787 1014.42 976.715 545.15 1012.4 90.3233L-981.471 -66.1192ZM13.2717 -985.581C472.809 -985.581 774.425 -692.764 902.949 -440.038L-879.769 466.559C-750.514 720.723 -447.655 1014.42 13.2717 1014.42V-985.581ZM866.898 -504.86C873.139 -494.556 889.49 -467.244 907.481 -430.49C926.5 -391.634 943.348 -350.577 957.444 -307.645L-942.747 316.273C-908.798 419.666 -866.036 494.538 -843.718 531.38L866.898 -504.86ZM960.637 -297.749L960.308 -298.788L-946.268 305.338L-945.939 306.377L960.637 -297.749ZM15.2333 -996.691L10.3706 -996.731L-6.05641 1003.2L-1.19376 1003.24L15.2333 -996.691ZM2.15711 -996.765C-1.62123 -996.765 -12.9698 -996.756 -27.4658 -996.33C-40.6228 -995.943 -69.8686 -994.874 -106.809 -990.839C-132.431 -988.04 -402.656 -967.554 -649.698 -755.507C-960.243 -488.953 -990.905 -147.298 -996.442 -59.5841C-998.105 -33.2384 -998.383 -12.0578 -998.424 0.0294486C-998.466 12.0715 -998.27 21.5038 -998.227 23.6285C-998.03 33.4466 -998.428 16.8689 -998.428 3.63462H1001.57C1001.57 -9.68957 1001.17 -26.3472 1001.37 -16.6001C1001.41 -14.5108 1001.61 -5.11181 1001.56 6.8991C1001.52 18.9551 1001.25 40.1067 999.584 66.4252C994.054 154.03 963.415 495.608 652.934 762.107C405.955 974.099 135.835 994.553 110.386 997.333C73.5305 1001.36 44.3869 1002.42 31.3519 1002.81C16.9779 1003.23 5.77093 1003.24 2.15711 1003.24V-996.765ZM-998.428 3.63462C-998.428 77.9012 -990.154 139.972 -982.006 184.478L985.297 -175.691C990.846 -145.378 994.266 -118.754 996.462 -97.1585C998.523 -76.895 1001.57 -41.1351 1001.57 3.63462H-998.428ZM-944.181 329.067L-943.413 331.304L948.239 -318.043L947.471 -320.28L-944.181 329.067ZM-940.317 340.186C-921.852 392.374 -881.683 494.594 -802.445 604.61C-765.792 655.501 -502.124 1025.28 16.1601 1025.28V-974.717C283.386 -974.717 483.268 -869.811 598.889 -786.126C711.943 -704.3 782.786 -616.534 820.443 -564.25C894.992 -460.744 930.664 -367.85 945.143 -326.926L-940.317 340.186ZM16.1601 1025.28H19.8162V-974.717H16.1601V1025.28ZM19.8162 1025.28C270.1 1025.28 528.098 930.352 725.347 734.14C890.848 569.51 953.058 392.647 974.858 322.788C987.922 280.924 995.618 246.485 999.745 226.448C1003.81 206.687 1006.41 190.877 1006.7 189.133C1010.99 163.411 1001.77 226.87 984.701 289.016L-943.899 -240.608C-961.02 -178.262 -970.278 -114.568 -966.026 -140.05C-965.755 -141.675 -963.184 -157.364 -959.139 -177.007C-955.036 -196.925 -947.369 -231.247 -934.339 -273.002C-912.607 -342.641 -850.491 -519.309 -685.131 -683.799C-488.022 -879.871 -230.211 -974.717 19.8162 -974.717V1025.28ZM1001.42 218.094L1002.12 214.579L-959.927 -173.2L-960.622 -169.685L1001.42 218.094ZM947.372 397.534C948.664 394.358 949.875 391.325 949.472 392.332C949.435 392.424 949.054 393.377 948.566 394.585C948.056 395.851 947.257 397.824 946.266 400.238C942.733 408.842 933.732 430.531 920.612 457.509C892.275 515.779 842.436 604.047 759.232 694.942L-716.017 -655.48C-799.477 -564.306 -849.499 -475.739 -877.991 -417.149C-891.188 -390.011 -900.26 -368.157 -903.863 -359.383C-904.871 -356.927 -905.687 -354.912 -906.215 -353.603C-906.72 -352.351 -907.119 -351.355 -907.173 -351.219C-907.612 -350.125 -906.436 -353.07 -905.181 -356.155L947.372 397.534ZM759.232 694.942C673.226 788.898 560.983 875.205 422.484 935.725C284.285 996.115 146.383 1019.29 22.5583 1019.29V-980.709C-254.222 -980.709 -523.546 -865.743 -716.017 -655.48L759.232 694.942ZM22.5583 1019.29C-263.579 1019.29 -465.798 899.321 -559.373 832.188C-659.521 760.34 -725.421 684.852 -762.388 637.737L811.088 -596.838C773.682 -644.511 707.233 -720.579 606.474 -792.866C512.285 -860.439 309.391 -980.709 22.5583 -980.709V1019.29ZM-787.014 604.991L-783.907 609.305L838.822 -559.778L835.714 -564.091L-787.014 604.991ZM-836.628 528.109C-738.875 695.919 -464.789 1025.28 28.0791 1025.28V-974.717C233.791 -974.717 436.953 -911.157 608.062 -789.249C759.716 -681.202 846.556 -555.81 891.543 -478.582L-836.628 528.109ZM28.0791 1025.28H34.1117V-974.717H28.0791V1025.28ZM34.1117 1025.28C127.537 1025.28 295.241 1012.35 479.628 920.788C673.712 824.414 1035.21 544.295 1035.21 24.6834H-964.792C-964.792 -494.529 -603.551 -774.348 -409.869 -870.523C-225.885 -961.882 -58.7289 -974.717 34.1117 -974.717V1025.28ZM1035.21 24.6834C1035.21 -133.275 997.194 -318.859 888.705 -496.635L-818.507 545.203C-879.58 445.126 -913.171 350.568 -932.278 277.512C-951.46 204.17 -964.792 119.019 -964.792 24.6834H1035.21ZM841.509 -567.073L836.208 -574.302L-776.613 608.411L-771.311 615.641L841.509 -567.073ZM836.596 -573.771C955.159 -411.87 1029.18 -207.4 1029.18 15.2574H-970.824C-970.824 239.113 -896.441 444.781 -777.002 607.881L836.596 -573.771ZM1029.18 15.2574C1029.18 241.718 953.301 428.267 866.73 560.67L-807.208 -533.83C-894.511 -400.308 -970.824 -212.481 -970.824 15.2574H1029.18ZM883.367 534.339C870.439 555.524 859.317 571.929 852.97 581.109C846.463 590.521 841.273 597.657 839.703 599.815C831.399 611.225 844.321 593.57 851.424 583.447C860.917 569.918 883.666 537.013 908.307 492.707C930.973 451.953 973.827 368.972 1003.23 255.78L-932.522 -247.073C-903.501 -358.787 -861.347 -440.21 -839.562 -479.381C-815.802 -522.103 -794.115 -553.398 -785.732 -565.344C-779.74 -573.884 -767.976 -589.984 -777.353 -577.1C-778.391 -575.675 -800.273 -546.125 -823.845 -507.499L883.367 534.339ZM1013.76 211.035L1013.87 210.516L-942.944 -202.847L-943.053 -202.328L1013.76 211.035ZM1019.12 -176.25C1020.18 -170.448 1021.15 -164.854 1022.04 -159.483C1022.93 -154.114 1023.73 -149 1024.45 -144.166C1025.9 -134.504 1027.02 -126.022 1027.88 -119.074C1028.31 -115.607 1028.67 -112.5 1028.98 -109.833C1029.28 -107.175 1029.53 -104.884 1029.73 -103.086C1029.82 -102.182 1029.91 -101.378 1029.98 -100.698C1030.05 -100.02 1030.11 -99.4382 1030.16 -98.9873C1030.2 -98.5405 1030.24 -98.1801 1030.26 -97.9635C1030.27 -97.8529 1030.28 -97.764 1030.29 -97.7113C1030.29 -97.6634 1030.3 -97.6227 1030.3 -97.6328C1030.3 -97.633 1030.29 -97.6364 1030.29 -97.6403C1030.29 -97.6445 1030.29 -97.6509 1030.29 -97.6587C1030.29 -97.674 1030.29 -97.6983 1030.29 -97.7281C1030.28 -97.7865 1030.27 -97.881 1030.26 -97.9972C1030.23 -98.225 1030.2 -98.5967 1030.15 -99.0548C1030.1 -99.5169 1030.04 -100.11 1029.97 -100.799C1029.9 -101.491 1029.81 -102.306 1029.71 -103.221C1029.52 -105.042 1029.26 -107.355 1028.96 -110.037C1028.65 -112.727 1028.28 -115.856 1027.85 -119.346C1026.98 -126.34 1025.85 -134.869 1024.4 -144.579C1023.68 -149.437 1022.87 -154.575 1021.98 -159.969C1021.08 -165.363 1020.11 -170.982 1019.04 -176.809L-948.26 183.359C-949.322 177.558 -950.293 171.963 -951.182 166.593C-952.07 161.224 -952.872 156.11 -953.595 151.276C-955.04 141.613 -956.163 133.131 -957.023 126.184C-957.452 122.717 -957.817 119.61 -958.122 116.943C-958.426 114.284 -958.677 111.994 -958.87 110.196C-958.966 109.292 -959.052 108.488 -959.123 107.808C-959.194 107.129 -959.254 106.548 -959.301 106.097C-959.347 105.65 -959.384 105.29 -959.406 105.073C-959.417 104.962 -959.426 104.873 -959.432 104.821C-959.436 104.773 -959.441 104.732 -959.44 104.742C-959.439 104.742 -959.439 104.746 -959.439 104.75C-959.438 104.754 -959.438 104.76 -959.437 104.768C-959.435 104.783 -959.433 104.808 -959.43 104.838C-959.424 104.896 -959.414 104.99 -959.402 105.107C-959.379 105.334 -959.341 105.706 -959.294 106.164C-959.246 106.626 -959.185 107.219 -959.112 107.909C-959.04 108.6 -958.954 109.415 -958.856 110.331C-958.66 112.151 -958.407 114.465 -958.101 117.146C-957.793 119.836 -957.425 122.966 -956.993 126.456C-956.128 133.45 -954.998 141.978 -953.546 151.688C-952.819 156.547 -952.014 161.685 -951.122 167.078C-950.229 172.473 -949.254 178.092 -948.187 183.918L1019.12 -176.25ZM35.3913 -996.725H29.6512V1003.28H35.3913V-996.725ZM-370.763 -913.059C-537.117 -840.367 -686.377 -721.144 -795.638 -561.997L853.185 569.985C744.363 728.493 595.688 847.236 430.066 919.609L-370.763 -913.059ZM-931.894 -273.705L-932.114 -272.947L989.222 282.452L989.442 281.694L-931.894 -273.705ZM-921.366 -307.739C-901.955 -366.746 -880.922 -411.773 -868.524 -436.818C-855.064 -464.011 -842.856 -485.456 -834.815 -499.086C-819.483 -525.073 -806.312 -544.394 -804.974 -546.375L852.504 572.895C855.487 568.478 870.632 546.182 887.737 517.19C898.09 499.642 943.545 423.425 978.475 317.245L-921.366 -307.739ZM-690.173 -686.949C-511.707 -868.914 -258.641 -985.941 21.9733 -985.941V1014.06C303.831 1014.06 558.139 896.553 737.703 713.469L-690.173 -686.949Z" fill="#5B331C" mask="url(#path-1-inside-1_13_158)"/>
</svg>
