<svg width="41" height="29" viewBox="0 0 41 29" fill="none" xmlns="http://www.w3.org/2000/svg">
<path d="M23.8169 14.5001L17.162 18.3029V10.6973L23.8169 14.5001Z" stroke="#5B331C" stroke-width="2" stroke-linecap="round" stroke-linejoin="round"/>
<path d="M1 15.8462V13.1538C1 7.64922 1 4.89599 2.72077 3.12577C4.44345 1.35366 7.15486 1.27761 12.5758 1.12359C15.1427 1.05134 17.7666 1 20.0141 1C22.2596 1 24.8836 1.05134 27.4524 1.12359C32.8733 1.27761 35.5847 1.35366 37.3055 3.12577C39.0282 4.89599 39.0282 7.65113 39.0282 13.1538V15.8443C39.0282 21.3508 39.0282 24.1021 37.3074 25.8742C35.5847 27.6444 32.8752 27.7224 27.4524 27.8745C24.8855 27.9487 22.2615 28 20.0141 28C17.5342 27.9925 15.0545 27.9507 12.5758 27.8745C7.15486 27.7224 4.44345 27.6463 2.72077 25.8742C1 24.1021 1 21.3489 1 15.8462Z" stroke="#5B331C" stroke-width="2"/>
</svg>
